<?xml version="1.0" encoding="UTF-8" standalone="no"?><!DOCTYPE svg PUBLIC "-//W3C//DTD SVG 1.1//EN" "http://www.w3.org/Graphics/SVG/1.1/DTD/svg11.dtd"><svg width="100%" height="100%" viewBox="0 0 420 216" version="1.1" xmlns="http://www.w3.org/2000/svg" xmlns:xlink="http://www.w3.org/1999/xlink" xml:space="preserve" style="fill-rule:evenodd;clip-rule:evenodd;stroke-linejoin:round;stroke-miterlimit:1.41421;"><g id="图层-6"><path d="M9.834,134.299c5.122,-0.005 144.331,0.815 150.479,2.097c6.148,1.282 9.563,5.315 0,5.328c-9.56,0.017 -147.559,2.107 -153.034,2.572c-5.476,0.468 -9.998,-9.982 2.555,-9.997" style="fill:#ee96bd;fill-rule:nonzero;"/><path d="M255.51,140.968c-0.975,0 -1.778,-0.771 -1.813,-1.752c-0.033,-1 0.75,-1.839 1.751,-1.871c2.558,-0.086 27.159,-0.005 28.206,-0.002c0.999,0.003 1.805,0.816 1.803,1.82c-0.004,0.996 -0.811,1.805 -1.811,1.805l-0.005,0c-0.257,-0.002 -25.571,-0.085 -28.07,-0.001c-0.019,0.001 -0.041,0.001 -0.061,0.001" style="fill:#ee96bd;fill-rule:nonzero;"/><path d="M302.829,137.206l105.926,1.048l-0.702,0.812l-105.224,1.541l0,-3.401Z" style="fill:#ee96bd;fill-rule:nonzero;"/><path d="M131.074,142.817c0,0 40.202,0.608 41.508,0.698c1.309,0.088 1.92,2.793 -0.437,2.615c-2.354,-0.17 -39.324,-0.071 -41.071,0.01c-1.746,0.08 -2.526,-3.366 0,-3.323" style="fill:#ee96bd;fill-rule:nonzero;"/><path d="M214.066,146.332l-9.539,0c-0.798,0 -1.449,-0.649 -1.449,-1.45c0,-0.801 0.651,-1.45 1.449,-1.45l9.539,0c0.8,0 1.449,0.649 1.449,1.45c0,0.801 -0.649,1.45 -1.449,1.45" style="fill:#ee96bd;fill-rule:nonzero;"/><path d="M275.393,145.68l-40.757,0c-0.6,0 -1.086,-0.486 -1.086,-1.09c0,-0.598 0.486,-1.09 1.086,-1.09l40.757,0c0.596,0 1.086,0.492 1.086,1.09c0,0.604 -0.49,1.09 -1.086,1.09" style="fill:#ee96bd;fill-rule:nonzero;"/><path d="M348.175,145.026l-41.744,0c-0.399,0 -0.719,-0.325 -0.719,-0.727c0,-0.4 0.32,-0.721 0.719,-0.721l41.744,0c0.397,0 0.725,0.321 0.725,0.721c0,0.402 -0.328,0.727 -0.725,0.727" style="fill:#ee96bd;fill-rule:nonzero;"/><path d="M146.102,69.423c-0.609,-1.572 -1.122,-3.177 -1.654,-4.748c-0.544,-1.535 -1.049,-3.19 -1.879,-4.108c-0.207,-0.225 -0.408,-0.422 -0.649,-0.591c-0.58,-0.525 -0.812,-0.907 -1.104,-1.305c-0.538,-0.786 -0.97,-1.552 -1.385,-2.332c-0.82,-1.557 -1.482,-3.16 -2.073,-4.793c-1.157,-3.276 -1.993,-6.693 -2.197,-10.348c-0.096,-1.827 -0.001,-3.723 0.444,-5.691c0.463,-2.041 1.525,-4.104 3.201,-5.693c1.69,-1.604 4.019,-2.515 6.158,-2.69c2.158,-0.177 4.142,0.173 5.943,0.726c1.804,0.568 3.463,1.31 5.015,2.177c1.51,0.832 2.956,1.739 4.337,2.599c2.77,1.731 5.399,3.289 8.438,4.221c3.008,1.025 6.279,1.504 9.613,1.995c-3.28,0.794 -6.689,1.1 -10.186,0.792c-3.49,-0.336 -6.972,-1.559 -10.012,-2.983l-4.457,-2.042c-1.419,-0.597 -2.831,-1.136 -4.223,-1.459c-1.382,-0.331 -2.734,-0.488 -3.882,-0.33c-1.154,0.136 -2.06,0.541 -2.785,1.231c-0.745,0.684 -1.317,1.668 -1.615,2.845c-0.353,1.253 -0.477,2.695 -0.504,4.176c-0.027,2.979 0.422,6.121 1.077,9.21c0.332,1.554 0.74,3.091 1.199,4.594c0.229,0.742 0.483,1.49 0.768,2.144c0.128,0.312 0.326,0.652 0.338,0.711c0.363,0.397 0.696,0.84 0.933,1.317c0.48,0.953 0.676,1.887 0.814,2.762c0.132,0.877 0.21,1.722 0.243,2.568c0.079,1.688 0.107,3.356 0.084,5.045" style="fill:#ee96bd;fill-rule:nonzero;"/><path d="M160.636,31.637c6.804,1.839 13.687,3.011 20.344,2.233c3.306,-0.413 6.538,-1.192 9.528,-2.545c1.914,-0.786 3.562,-1.159 5.334,-1.624c1.744,-0.429 3.492,-0.803 5.249,-1.135c3.523,-0.597 7.072,-1.04 10.637,-1.254c3.574,-0.152 7.161,-0.205 10.733,0.152c7.103,0.617 14.313,2.369 20.321,6.172c-6.737,-2.125 -13.612,-2.789 -20.465,-2.783c-3.43,0.055 -6.856,0.183 -10.266,0.565c-3.417,0.326 -6.821,0.783 -10.192,1.426c-1.691,0.284 -3.375,0.614 -5.039,0.989c-1.627,0.368 -3.39,0.827 -4.754,1.289c-3.49,1.307 -7.181,2.088 -10.865,2.122c-7.386,0.179 -14.468,-2.115 -20.565,-5.607" style="fill:#ee96bd;fill-rule:nonzero;"/><path d="M237.022,29.087c2.79,-0.037 5.463,-0.392 8.056,-1.062c2.593,-0.677 5.115,-1.609 7.649,-2.615c2.547,-0.972 5.124,-2.029 7.851,-2.732c2.707,-0.717 5.598,-1.103 8.362,-0.623c-5.52,0.838 -10.24,3.345 -15.425,5.377c-2.589,0.986 -5.289,1.884 -8.116,2.254c-2.806,0.393 -5.717,0.258 -8.377,-0.599" style="fill:#ee96bd;fill-rule:nonzero;"/><path d="M249.464,34.428c1.959,-1.89 4.232,-3.373 6.5,-4.845c2.301,-1.413 4.676,-2.731 7.16,-3.853c2.475,-1.154 5.053,-2.12 7.786,-2.813c1.367,-0.343 2.784,-0.588 4.257,-0.715c1.47,-0.118 3.117,-0.01 4.628,0.372c1.524,0.415 3.148,1.04 4.53,2.535c0.666,0.744 1.193,1.765 1.361,2.813c0.178,1.05 0.055,2.049 -0.201,2.901c-0.529,1.709 -1.415,2.983 -2.348,4.116c-0.251,0.298 -0.448,0.531 -0.751,0.853c-0.392,0.402 -0.662,0.606 -0.981,0.846c-0.605,0.438 -1.17,0.799 -1.722,1.164c-2.178,1.443 -4.248,2.843 -5.683,4.804c-1.508,1.9 -2.086,4.474 -1.744,7.169c-0.612,-1.205 -0.992,-2.57 -1.025,-4.005c-0.048,-1.435 0.315,-2.902 0.921,-4.238c1.264,-2.675 3.43,-4.725 5.494,-6.445c0.508,-0.436 1.017,-0.865 1.443,-1.268c0.199,-0.187 0.431,-0.418 0.49,-0.505l0.509,-0.7c0.663,-0.98 1.231,-2.002 1.417,-2.87c0.173,-0.907 0.052,-1.303 -0.372,-1.759c-0.439,-0.484 -1.377,-0.951 -2.41,-1.198c-1.07,-0.276 -2.106,-0.366 -3.295,-0.299c-1.18,0.042 -2.407,0.227 -3.634,0.453c-2.468,0.458 -4.953,1.183 -7.449,1.943c-4.954,1.633 -9.938,3.448 -14.881,5.544" style="fill:#ee96bd;fill-rule:nonzero;"/><path d="M264.466,46.168c12.039,6.549 21.951,17.117 28.609,29.376c1.689,3.07 3.188,6.243 4.401,9.571c1.323,3.396 2.029,7.057 2.326,10.631c0.297,3.591 0.15,7.199 -0.367,10.79c-0.541,3.588 -1.494,7.178 -3.134,10.583c-0.831,1.69 -1.854,3.325 -3.071,4.832c-0.611,0.744 -1.291,1.484 -1.967,2.135c-0.607,0.59 -1.313,1.242 -1.97,1.815c-2.706,2.364 -5.639,4.492 -8.799,6.219c-6.321,3.439 -13.314,5.549 -20.361,6.159c-3.526,0.339 -7.036,0.347 -10.479,0.193c-3.466,-0.174 -6.942,-0.505 -10.376,-1.183c-3.417,-0.722 -6.849,-1.705 -9.926,-3.491c-1.53,-0.893 -2.96,-1.995 -4.108,-3.345c-1.132,-1.355 -1.955,-2.962 -2.288,-4.64c1.295,3.22 4.101,5.335 7.111,6.545c3.042,1.236 6.321,1.828 9.627,2.116c3.295,0.313 6.635,0.341 9.97,0.195c3.362,-0.161 6.676,-0.328 9.896,-0.881c6.455,-1.08 12.713,-3.099 18.215,-6.437c2.758,-1.643 5.369,-3.521 7.751,-5.684c0.617,-0.555 1.156,-1.061 1.76,-1.665c0.541,-0.539 1.001,-1.063 1.47,-1.635c0.906,-1.152 1.678,-2.439 2.341,-3.801c2.705,-5.466 3.524,-12.09 3.241,-18.466c-0.142,-3.214 -0.611,-6.328 -1.651,-9.327c-1.024,-3.099 -2.246,-6.183 -3.629,-9.191c-5.618,-12.015 -13.929,-22.865 -24.592,-31.414" style="fill:#ee96bd;fill-rule:nonzero;"/><path d="M149.124,69.423c-2.1,5.476 -3.93,10.988 -5.439,16.582c-1.548,5.568 -2.845,11.231 -3.773,16.837c-0.108,0.695 -0.204,1.394 -0.284,2.077c-0.079,0.675 -0.112,1.321 -0.177,2.101c-0.123,1.446 -0.236,2.79 -0.224,4.126c0.013,2.658 0.466,5.207 1.448,7.536c1.9,4.694 5.859,8.459 10.535,11.224l0.878,0.528l0.411,0.238l0.434,0.233c0.493,0.257 1.118,0.539 1.717,0.782c1.226,0.496 2.535,0.923 3.871,1.312c2.674,0.781 5.462,1.37 8.259,1.945c5.603,1.174 11.333,1.935 17.052,2.69c2.86,0.356 5.736,0.624 8.572,0.823c2.777,0.169 5.747,0.169 8.583,0.079c2.867,-0.064 5.72,-0.316 8.52,-0.874c2.787,-0.57 5.541,-1.484 7.983,-3.128c-2.023,2.15 -4.74,3.622 -7.539,4.673c-2.811,1.061 -5.759,1.676 -8.692,2.167c-2.977,0.433 -5.842,0.733 -8.901,0.884c-2.998,0.114 -5.947,0.005 -8.901,-0.113c-5.908,-0.229 -11.774,-0.903 -17.66,-1.8c-2.941,-0.474 -5.868,-1.099 -8.813,-1.891c-1.474,-0.404 -2.947,-0.857 -4.439,-1.432c-0.756,-0.293 -1.47,-0.594 -2.276,-0.998l-0.534,-0.279l-0.539,-0.301c-0.337,-0.191 -0.675,-0.384 -1.005,-0.591c-2.643,-1.64 -5.179,-3.571 -7.391,-5.929c-2.197,-2.35 -4.103,-5.132 -5.229,-8.26c-1.147,-3.114 -1.552,-6.448 -1.409,-9.616c0.066,-1.586 0.246,-3.148 0.475,-4.598c0.111,-0.673 0.217,-1.475 0.368,-2.242c0.148,-0.759 0.31,-1.498 0.482,-2.23c1.369,-5.837 3.303,-11.417 5.519,-16.894c2.289,-5.433 4.876,-10.762 8.118,-15.661" style="fill:#ee96bd;fill-rule:nonzero;"/><path d="M167.962,108.835c3.385,-1.017 6.714,-1.847 9.977,-2.793c3.262,-0.948 6.445,-2.008 9.539,-3.243c3.092,-1.246 6.093,-2.667 9.004,-4.348c2.919,-1.665 5.73,-3.638 8.79,-5.427c-2.023,2.883 -4.39,5.529 -7.191,7.757c-2.783,2.236 -5.925,4.065 -9.254,5.381c-3.325,1.334 -6.811,2.187 -10.315,2.637c-3.505,0.456 -7.045,0.513 -10.55,0.036" style="fill:#ee96bd;fill-rule:nonzero;"/><path d="M224.697,91.37c6.325,3.213 12.897,4.404 19.661,5.279c3.376,0.423 6.788,0.757 10.236,1.073c3.449,0.32 6.93,0.608 10.447,1.233c-3.457,0.883 -6.953,1.383 -10.49,1.593c-3.533,0.211 -7.101,0.157 -10.65,-0.304c-3.545,-0.45 -7.084,-1.295 -10.433,-2.684c-3.325,-1.381 -6.526,-3.38 -8.771,-6.19" style="fill:#ee96bd;fill-rule:nonzero;"/><path d="M197.61,103.055c0.872,0.075 1.664,0.394 2.38,0.776c0.724,0.377 1.369,0.87 1.98,1.399c0.584,0.555 1.137,1.147 1.583,1.83c0.457,0.678 0.84,1.416 1.033,2.272c-1.572,-0.737 -2.731,-1.693 -3.886,-2.707c-0.549,-0.529 -1.103,-1.051 -1.613,-1.64c-0.524,-0.583 -1.007,-1.187 -1.477,-1.93" style="fill:#ee96bd;fill-rule:nonzero;"/><path d="M187.143,124.01c-4.29,0 -8.051,-1.524 -9.471,-2.916c-4.088,-4.003 -3.139,-9.407 -2.683,-12.004c0.072,-0.412 0.136,-0.757 0.161,-1.023l2.888,0.264c-0.029,0.323 -0.103,0.753 -0.191,1.263c-0.429,2.428 -1.143,6.494 1.854,9.431c1.398,1.369 7.434,3.365 12.79,1.011c3.465,-1.519 4.193,-4.241 5.035,-7.394c0.68,-2.546 1.382,-5.177 3.648,-7.093l1.874,2.214c-1.571,1.327 -2.105,3.32 -2.721,5.626c-0.905,3.388 -1.928,7.223 -6.669,9.303c-2.153,0.945 -4.398,1.318 -6.515,1.318" style="fill:#ee96bd;fill-rule:nonzero;"/><path d="M254.873,115.199c-0.491,0 -0.983,-0.019 -1.489,-0.062c-2.495,-0.212 -10.949,-1.132 -15.115,-4.104c-2.091,-1.497 -2.703,-3.448 -3.191,-5.017c-0.343,-1.092 -0.639,-2.038 -1.352,-2.769l2.066,-2.035c1.209,1.232 1.658,2.669 2.052,3.941c0.454,1.447 0.812,2.588 2.114,3.521c2.831,2.02 8.92,3.17 13.667,3.573c4.421,0.385 7.653,-1.305 8.878,-2.356c1.147,-0.992 0.717,-2.364 -0.771,-5.263c-0.991,-1.943 -2.018,-3.948 -1.154,-5.702l2.601,1.278c-0.222,0.449 0.631,2.11 1.138,3.104c1.25,2.446 3.136,6.143 0.071,8.78c-1.743,1.503 -5.195,3.111 -9.515,3.111" style="fill:#ee96bd;fill-rule:nonzero;"/><path d="M211.565,141.596c0.854,0.797 1.963,1.044 3.046,1.258c1.087,0.212 2.2,0.298 3.316,0.364c2.226,0.101 4.47,0.074 6.691,-0.113c2.22,-0.153 4.437,-0.462 6.584,-0.968c1.069,-0.273 2.128,-0.58 3.125,-1.041c1.007,-0.443 1.949,-1.035 2.695,-1.94c-0.317,1.147 -1.192,2.109 -2.137,2.852c-0.967,0.736 -2.047,1.304 -3.161,1.744c-2.232,0.895 -4.587,1.317 -6.942,1.52c-2.359,0.156 -4.733,0.084 -7.068,-0.375c-1.166,-0.223 -2.321,-0.552 -3.424,-1.031c-1.061,-0.502 -2.244,-1.144 -2.725,-2.27" style="fill:#ee96bd;fill-rule:nonzero;"/><path d="M236.729,99.566c-0.342,0.648 -0.593,1.153 -0.944,1.663c-0.327,0.509 -0.713,0.957 -1.098,1.405c-0.414,0.421 -0.827,0.844 -1.311,1.211c-0.472,0.384 -0.983,0.711 -1.621,1.048c-0.043,-0.73 0.189,-1.386 0.467,-1.964c0.282,-0.588 0.662,-1.095 1.078,-1.572c0.444,-0.45 0.915,-0.878 1.487,-1.199c0.546,-0.32 1.217,-0.628 1.942,-0.592" style="fill:#ee96bd;fill-rule:nonzero;"/><path d="M221.53,122.272l-0.532,-0.515c-1.751,-1.698 -5.344,-4.142 -6.189,-4.652c-0.841,-0.505 -1.052,-1.587 -0.827,-2.396c0.213,-0.777 0.803,-1.258 1.535,-1.258c0.96,0.057 5.467,0.266 8.119,0.266c1.253,0 1.634,-0.047 1.74,-0.069c0.943,-0.174 1.681,0.304 2.003,1.148c0.279,0.735 0.142,1.545 -0.335,1.967c-0.387,0.342 -2.809,2.584 -5.01,4.966l-0.504,0.543Z" style="fill:#ee96bd;fill-rule:nonzero;"/><path d="M173.106,147.44c1.669,1.494 3.196,3.122 4.701,4.772c0.742,0.835 1.464,1.69 2.176,2.562c0.361,0.434 0.702,0.886 1.039,1.362c0.168,0.236 0.335,0.477 0.499,0.746c0.101,0.147 0.31,0.464 0.41,0.539c1.176,1.259 3.178,2.168 5.075,2.454c0.503,0.074 0.909,0.112 1.48,0.14l1.648,0.09c1.074,0.051 2.131,0.058 3.175,-0.005c4.149,-0.11 8.219,-1.562 10.043,-5.148c0.876,-1.665 1.021,-3.789 0.672,-5.877c-0.318,-2.104 -1.079,-4.186 -1.911,-6.258c1.387,1.755 2.541,3.723 3.294,5.923c0.708,2.18 0.987,4.746 0,7.155c-0.893,2.314 -2.785,4.261 -4.988,5.399c-2.224,1.145 -4.639,1.561 -6.972,1.702c-1.17,0.047 -2.33,0.015 -3.468,-0.066l-1.667,-0.125c-0.535,-0.032 -1.235,-0.101 -1.818,-0.242c-1.217,-0.266 -2.371,-0.707 -3.458,-1.298c-1.087,-0.611 -2.094,-1.358 -2.909,-2.491c-0.256,-0.352 -0.327,-0.514 -0.506,-0.845c-0.105,-0.215 -0.229,-0.444 -0.36,-0.675l-0.822,-1.392c-0.564,-0.937 -1.163,-1.863 -1.76,-2.793l-3.573,-5.629Z" style="fill:#ee96bd;fill-rule:nonzero;"/><path d="M275.741,154.068c0.51,3.298 0.828,6.627 1.088,9.955c0.135,1.668 0.233,3.331 0.307,5.008c0.035,0.839 0.069,1.673 0.069,2.528c0.018,0.867 -0.093,1.774 -0.161,2.57c-0.333,3.274 -0.41,6.54 0.114,9.688c0.132,0.792 0.301,1.549 0.5,2.336c0.22,0.887 0.356,1.712 0.504,2.549c0.278,1.668 0.519,3.326 0.722,5.011c0.095,0.852 0.195,1.664 0.238,2.609c0.016,0.726 0.135,1.466 0.289,2.222c0.318,1.49 0.794,2.989 1.512,4.178c0.373,0.604 0.733,1.052 1.242,1.434c0.728,0.585 1.302,1.093 1.92,1.55c1.204,0.913 2.512,1.603 3.947,2.113c2.857,1.014 6.046,1.39 9.252,1.451c1.608,0.027 3.225,-0.023 4.845,-0.124c1.491,-0.08 2.835,-0.415 4.009,-1.081c2.365,-1.266 3.842,-3.929 4.4,-6.862c0.281,-1.466 0.363,-3.001 0.241,-4.49c-0.06,-0.743 -0.177,-1.478 -0.359,-2.14c-0.065,-0.26 -0.237,-0.756 -0.35,-1.119l-0.382,-1.119c-1.081,-3.037 -2.468,-5.996 -3.954,-8.949c-0.7,-1.442 -1.589,-2.915 -2.245,-4.607c-0.655,-1.673 -1.089,-3.472 -1.214,-5.275c-0.146,-1.792 0.013,-3.633 0.347,-5.312c0.204,-1.423 0.26,-3.188 0.351,-4.803c0.153,-3.301 0.196,-6.618 0.164,-9.931c-0.014,-3.318 -0.135,-6.632 -0.394,-9.936c-0.126,-1.651 -0.307,-3.302 -0.562,-4.936c-0.254,-1.637 -0.576,-3.272 -1.152,-4.835c1.465,3.015 2.133,6.36 2.713,9.648c0.556,3.307 0.896,6.645 1.172,9.982c0.245,3.342 0.388,6.688 0.436,10.046c0.011,1.713 0.043,3.288 -0.145,5.176c-0.243,1.596 -0.296,3.112 -0.115,4.633c0.172,1.516 0.596,2.979 1.212,4.385c0.59,1.396 1.454,2.778 2.253,4.306c1.582,2.955 3.114,5.998 4.347,9.213l0.462,1.233c0.141,0.43 0.248,0.716 0.41,1.258c0.261,0.944 0.407,1.859 0.492,2.775c0.164,1.83 0.082,3.651 -0.251,5.457c-0.338,1.805 -0.94,3.605 -1.937,5.262c-0.988,1.652 -2.426,3.137 -4.18,4.103c-1.74,0.977 -3.725,1.409 -5.553,1.492c-1.707,0.096 -3.417,0.134 -5.142,0.086c-3.436,-0.113 -6.966,-0.479 -10.374,-1.783c-1.691,-0.647 -3.339,-1.576 -4.756,-2.71c-0.711,-0.552 -1.369,-1.167 -1.934,-1.639c-0.81,-0.638 -1.49,-1.529 -1.954,-2.357c-0.951,-1.704 -1.439,-3.45 -1.754,-5.218c-0.141,-0.883 -0.248,-1.798 -0.233,-2.74c0,-0.72 -0.059,-1.562 -0.118,-2.371c-0.128,-1.633 -0.298,-3.28 -0.497,-4.905c-0.104,-0.807 -0.21,-1.634 -0.361,-2.373c-0.186,-0.831 -0.312,-1.719 -0.406,-2.578c-0.365,-3.461 -0.079,-6.911 0.469,-10.229c0.141,-0.856 0.297,-1.596 0.339,-2.398c0.058,-0.811 0.086,-1.638 0.115,-2.464l0.093,-4.982c0.019,-3.329 0.038,-6.659 -0.091,-9.991" style="fill:#ee96bd;fill-rule:nonzero;"/><path d="M185.548,151.681c0.675,0.074 1.278,0.508 1.728,0.981c0.48,0.48 0.791,1.077 1.034,1.685c0.432,1.231 0.483,2.607 -0.096,3.822c-0.599,-1.206 -0.899,-2.266 -1.309,-3.308c-0.389,-1.059 -0.718,-2.032 -1.357,-3.18" style="fill:#ee96bd;fill-rule:nonzero;"/><path d="M191.348,150.261c1.527,-0.104 2.978,0.938 3.742,2.243c0.763,1.329 0.967,2.922 0.472,4.331c-0.682,-1.337 -1.107,-2.517 -1.762,-3.572c-0.616,-1.084 -1.355,-1.99 -2.452,-3.002" style="fill:#ee96bd;fill-rule:nonzero;"/><path d="M196.201,147.667c0.741,0.111 1.389,0.527 1.937,0.995c0.57,0.462 1,1.054 1.371,1.674c0.693,1.256 1.046,2.752 0.685,4.192c-0.803,-1.242 -1.333,-2.357 -1.986,-3.459c-0.624,-1.115 -1.232,-2.176 -2.007,-3.402" style="fill:#ee96bd;fill-rule:nonzero;"/><path d="M302.834,193.624c0.604,0.796 1.312,1.361 2.022,2.021c0.722,0.641 1.415,1.393 1.949,2.32c0.514,0.932 0.79,2.097 0.566,3.163c-0.198,1.064 -0.705,1.986 -1.415,2.698c0.183,-0.986 0.363,-1.909 0.311,-2.777c-0.064,-0.862 -0.289,-1.642 -0.723,-2.388c-0.401,-0.763 -0.99,-1.474 -1.522,-2.294c-0.53,-0.794 -1.137,-1.709 -1.188,-2.743" style="fill:#ee96bd;fill-rule:nonzero;"/><path d="M296.873,196.002c0.863,0.426 1.386,1.335 1.675,2.145c0.33,0.838 0.454,1.703 0.523,2.548c0.066,1.694 -0.177,3.425 -1.086,4.975c-0.796,-1.628 -0.951,-3.275 -1.07,-4.855c-0.022,-0.794 -0.053,-1.579 -0.02,-2.369c-0.013,-0.787 0.129,-1.548 -0.022,-2.444" style="fill:#ee96bd;fill-rule:nonzero;"/><path d="M289.396,195.064c-0.686,1.519 -1.032,2.96 -1.528,4.464c-0.26,0.737 -0.487,1.489 -0.804,2.228c-0.313,0.675 -0.596,1.644 -1.091,2.071c-0.047,-0.14 -0.045,-0.749 -0.071,-1.11l0.086,-1.227c0.069,-0.822 0.272,-1.618 0.511,-2.41c0.272,-0.78 0.584,-1.559 1.064,-2.259c0.467,-0.696 1.038,-1.395 1.833,-1.757" style="fill:#ee96bd;fill-rule:nonzero;"/></g></svg>